<svg width="104" height="25" viewBox="0 0 104 25" fill="none" xmlns="http://www.w3.org/2000/svg">
<path d="M0.0803042 24.129V0.717386H5.76597V19.1122H18.0738V24.129H0.0803042ZM24.4783 24.129V0.717386H35.3479C37.2431 0.717386 38.96 1.01839 40.4985 1.6204C42.0369 2.20012 43.3524 3.0251 44.445 4.09534C45.5598 5.16559 46.4071 6.4142 46.9868 7.8412C47.5665 9.24589 47.8564 10.7732 47.8564 12.4232C47.8564 14.0954 47.5665 15.6451 46.9868 17.072C46.4071 18.499 45.5598 19.7365 44.445 20.7845C43.3524 21.8324 42.0369 22.6574 40.4985 23.2594C38.96 23.8391 37.2431 24.129 35.3479 24.129H24.4783ZM30.1639 20.2493L29.3947 19.1122H35.1807C36.2955 19.1122 37.2766 18.945 38.1239 18.6105C38.9711 18.2538 39.6735 17.7744 40.2309 17.1724C40.8106 16.5704 41.2566 15.868 41.5687 15.0653C41.8809 14.2627 42.0369 13.3819 42.0369 12.4232C42.0369 11.4867 41.8809 10.6171 41.5687 9.81446C41.2566 8.98948 40.8106 8.27598 40.2309 7.67397C39.6735 7.07196 38.9711 6.60373 38.1239 6.26928C37.2766 5.91253 36.2955 5.73415 35.1807 5.73415H29.2943L30.1639 4.66391V20.2493ZM63.3242 24.4634C61.6297 24.4634 60.0912 24.285 58.7088 23.9283C57.3487 23.5715 56.1224 23.0699 55.0298 22.4233C53.9596 21.7544 52.9785 20.974 52.0867 20.0821L55.1971 15.9349C56.6018 17.3396 58.0065 18.3207 59.4112 18.8781C60.8381 19.4132 62.254 19.6808 63.6587 19.6808C64.3053 19.6808 64.9296 19.6139 65.5316 19.4801C66.1559 19.324 66.6576 19.0788 67.0366 18.7443C67.4157 18.4099 67.6052 17.9751 67.6052 17.4399C67.6052 17.0832 67.5049 16.7822 67.3042 16.5369C67.1035 16.2694 66.8248 16.0464 66.4681 15.868C66.1113 15.6896 65.6877 15.5336 65.1972 15.3998C64.7289 15.266 64.2273 15.1545 63.6921 15.0653C63.1793 14.9539 62.633 14.8535 62.0533 14.7643C60.6486 14.5414 59.4 14.2292 58.3075 13.8279C57.2372 13.4265 56.3342 12.9249 55.5984 12.3228C54.8626 11.7208 54.2941 11.0185 53.8927 10.2158C53.5137 9.41312 53.3241 8.49895 53.3241 7.4733C53.3241 6.38076 53.5806 5.38855 54.0934 4.49668C54.6285 3.58252 55.3531 2.81328 56.2673 2.18897C57.1815 1.54237 58.2406 1.05184 59.4446 0.717386C60.6486 0.360639 61.9195 0.182265 63.2573 0.182265C64.8627 0.182265 66.2563 0.338342 67.438 0.650496C68.642 0.962651 69.69 1.40859 70.5818 1.9883C71.4737 2.54572 72.2206 3.20347 72.8226 3.96156L69.6454 7.57363C69.0879 7.01622 68.4636 6.54798 67.7724 6.16894C67.0812 5.7899 66.3454 5.50004 65.5651 5.29937C64.807 5.0987 64.0377 4.99836 63.2573 4.99836C62.477 4.99836 61.7858 5.08755 61.1837 5.26592C60.5817 5.422 60.1024 5.65611 59.7456 5.96827C59.3889 6.28042 59.2105 6.67062 59.2105 7.13885C59.2105 7.54019 59.3554 7.88579 59.6453 8.17565C59.9351 8.44321 60.3142 8.67732 60.7824 8.87799C61.2729 9.07866 61.8192 9.24589 62.4212 9.37967C63.0232 9.49116 63.6252 9.59149 64.2273 9.68068C65.4982 9.88135 66.691 10.1489 67.8059 10.4834C68.9207 10.7955 69.9018 11.2192 70.749 11.7543C71.5963 12.2671 72.2541 12.936 72.7223 13.761C73.2128 14.5637 73.4581 15.567 73.4581 16.771C73.4581 18.3987 73.0122 19.7923 72.1203 20.9517C71.2507 22.0888 70.0578 22.9584 68.5417 23.5604C67.0255 24.1624 65.2863 24.4634 63.3242 24.4634ZM79.8391 24.129V0.717386H85.0565L99.2038 17.4399L98.2339 17.2727C98.1001 16.4923 97.9998 15.7454 97.9329 15.0319C97.866 14.3184 97.7991 13.6272 97.7322 12.9583C97.6876 12.2894 97.643 11.6205 97.5984 10.9516C97.5761 10.2827 97.565 9.58034 97.565 8.84455C97.565 8.10876 97.565 7.32837 97.565 6.50339V0.717386H103.083V24.129H97.7991L83.1167 6.87129L84.6886 7.1054C84.7555 7.88579 84.8224 8.58814 84.8893 9.21245C84.9785 9.83675 85.0454 10.4276 85.0899 10.985C85.1568 11.5202 85.2014 12.0664 85.2237 12.6238C85.2683 13.159 85.3018 13.7275 85.3241 14.3295C85.3464 14.9316 85.3575 15.5893 85.3575 16.3028V24.129H79.8391Z" fill="#F86D17"/>
</svg>
